<svg width="512" height="512" viewBox="0 0 512 512" fill="none" xmlns="http://www.w3.org/2000/svg">
<path d="M256 255.69C256 221.321 279.031 193.627 307.25 193.627C335.47 193.627 358.5 221.321 358.5 255.69C358.5 290.06 335.47 317.754 307.25 317.754C279.031 317.754 256 290.06 256 255.69Z" fill="#FB016D" stroke="black"/>
<g filter="url(#filter0_d_302_16)">
<path fill-rule="evenodd" clip-rule="evenodd" d="M152 380.817C152 346.265 175.169 318.254 203.75 318.254H255.5V380.817C255.5 415.37 232.33 443.381 203.75 443.381C175.169 443.381 152 415.37 152 380.817Z" fill="#FB016D"/>
</g>
<path d="M307.25 192.627H256V68.5H307.25C335.47 68.5 358.5 96.1935 358.5 130.563C358.5 164.933 335.47 192.627 307.25 192.627Z" fill="#FB016D" stroke="black"/>
<path d="M203.75 192.627C175.53 192.627 152.5 164.933 152.5 130.563C152.5 96.1935 175.53 68.5 203.75 68.5H255V192.627H203.75Z" fill="#FB016D" stroke="black"/>
<path d="M203.75 317.754C175.53 317.754 152.5 290.06 152.5 255.69C152.5 221.321 175.53 193.627 203.75 193.627H255V317.754H203.75Z" fill="#FB016D" stroke="black"/>
<defs>
<filter id="filter0_d_302_16" x="148" y="318.254" width="111.5" height="133.127" filterUnits="userSpaceOnUse" color-interpolation-filters="sRGB">
<feFlood flood-opacity="0" result="BackgroundImageFix"/>
<feColorMatrix in="SourceAlpha" type="matrix" values="0 0 0 0 0 0 0 0 0 0 0 0 0 0 0 0 0 0 127 0" result="hardAlpha"/>
<feOffset dy="4"/>
<feGaussianBlur stdDeviation="2"/>
<feComposite in2="hardAlpha" operator="out"/>
<feColorMatrix type="matrix" values="0 0 0 0 0 0 0 0 0 0 0 0 0 0 0 0 0 0 0.25 0"/>
<feBlend mode="normal" in2="BackgroundImageFix" result="effect1_dropShadow_302_16"/>
<feBlend mode="normal" in="SourceGraphic" in2="effect1_dropShadow_302_16" result="shape"/>
</filter>
</defs>
</svg>
